<mxfile host="Electron" modified="2023-04-17T17:28:58.039Z" agent="Mozilla/5.0 (Windows NT 10.0; Win64; x64) AppleWebKit/537.36 (KHTML, like Gecko) draw.io/21.1.2 Chrome/106.0.5249.199 Electron/21.4.3 Safari/537.36" etag="5zO6bcQXNyf9ISc729sk" version="21.1.2" type="device">
  <diagram id="EMrtGi0U3tdq9u1__j4z" name="Page-1">
    <mxGraphModel dx="3414" dy="1009" grid="0" gridSize="10" guides="1" tooltips="1" connect="1" arrows="1" fold="1" page="1" pageScale="1" pageWidth="850" pageHeight="1100" math="0" shadow="0">
      <root>
        <mxCell id="0" />
        <mxCell id="1" parent="0" />
        <mxCell id="ZRSunYi8uTQ0CrSBALGP-15" style="edgeStyle=orthogonalEdgeStyle;rounded=0;orthogonalLoop=1;jettySize=auto;html=1;exitX=0.25;exitY=1;exitDx=0;exitDy=0;entryX=0.5;entryY=1;entryDx=0;entryDy=0;" edge="1" parent="1" source="m3ombVxUTrLoru0Fd6zf-2" target="ZRSunYi8uTQ0CrSBALGP-7">
          <mxGeometry relative="1" as="geometry" />
        </mxCell>
        <mxCell id="ZRSunYi8uTQ0CrSBALGP-20" style="edgeStyle=orthogonalEdgeStyle;rounded=0;orthogonalLoop=1;jettySize=auto;html=1;exitX=1;exitY=0.5;exitDx=0;exitDy=0;entryX=0;entryY=0.5;entryDx=0;entryDy=0;" edge="1" parent="1" source="m3ombVxUTrLoru0Fd6zf-2" target="ZRSunYi8uTQ0CrSBALGP-8">
          <mxGeometry relative="1" as="geometry">
            <Array as="points">
              <mxPoint x="-447" y="1225" />
            </Array>
          </mxGeometry>
        </mxCell>
        <mxCell id="m3ombVxUTrLoru0Fd6zf-2" value="&lt;font style=&quot;font-size: 18px;&quot;&gt;&lt;b&gt;&lt;br&gt;&lt;br&gt;Leisure Diary API&lt;/b&gt;&lt;/font&gt;" style="rounded=1;whiteSpace=wrap;html=1;arcSize=10;" parent="1" vertex="1">
          <mxGeometry x="-689" y="1130" width="242" height="178" as="geometry" />
        </mxCell>
        <mxCell id="ZRSunYi8uTQ0CrSBALGP-2" value="" style="endArrow=none;html=1;rounded=0;" edge="1" parent="1">
          <mxGeometry width="50" height="50" relative="1" as="geometry">
            <mxPoint x="-689" y="1188" as="sourcePoint" />
            <mxPoint x="-689" y="1187" as="targetPoint" />
            <Array as="points">
              <mxPoint x="-446" y="1189" />
            </Array>
          </mxGeometry>
        </mxCell>
        <mxCell id="ZRSunYi8uTQ0CrSBALGP-4" value="&lt;b&gt;&lt;font style=&quot;font-size: 18px;&quot;&gt;0&lt;/font&gt;&lt;/b&gt;" style="text;html=1;strokeColor=none;fillColor=none;align=center;verticalAlign=middle;whiteSpace=wrap;rounded=0;" vertex="1" parent="1">
          <mxGeometry x="-598" y="1144" width="60" height="30" as="geometry" />
        </mxCell>
        <mxCell id="ZRSunYi8uTQ0CrSBALGP-9" style="edgeStyle=orthogonalEdgeStyle;rounded=0;orthogonalLoop=1;jettySize=auto;html=1;entryX=0.25;entryY=0;entryDx=0;entryDy=0;exitX=0.5;exitY=0;exitDx=0;exitDy=0;" edge="1" parent="1" source="ZRSunYi8uTQ0CrSBALGP-7" target="m3ombVxUTrLoru0Fd6zf-2">
          <mxGeometry relative="1" as="geometry" />
        </mxCell>
        <mxCell id="ZRSunYi8uTQ0CrSBALGP-11" style="edgeStyle=orthogonalEdgeStyle;rounded=0;orthogonalLoop=1;jettySize=auto;html=1;" edge="1" parent="1" source="ZRSunYi8uTQ0CrSBALGP-7" target="m3ombVxUTrLoru0Fd6zf-2">
          <mxGeometry relative="1" as="geometry">
            <Array as="points">
              <mxPoint x="-745" y="1225" />
              <mxPoint x="-745" y="1225" />
            </Array>
          </mxGeometry>
        </mxCell>
        <mxCell id="ZRSunYi8uTQ0CrSBALGP-7" value="&lt;b&gt;&lt;font face=&quot;Verdana&quot;&gt;Service provider&lt;/font&gt;&lt;/b&gt;" style="rounded=0;whiteSpace=wrap;html=1;" vertex="1" parent="1">
          <mxGeometry x="-1062" y="1198" width="136" height="68" as="geometry" />
        </mxCell>
        <mxCell id="ZRSunYi8uTQ0CrSBALGP-17" style="edgeStyle=orthogonalEdgeStyle;rounded=0;orthogonalLoop=1;jettySize=auto;html=1;entryX=0.777;entryY=0.001;entryDx=0;entryDy=0;entryPerimeter=0;" edge="1" parent="1" source="ZRSunYi8uTQ0CrSBALGP-8" target="m3ombVxUTrLoru0Fd6zf-2">
          <mxGeometry relative="1" as="geometry">
            <Array as="points">
              <mxPoint x="-141" y="1110" />
              <mxPoint x="-501" y="1110" />
            </Array>
          </mxGeometry>
        </mxCell>
        <mxCell id="ZRSunYi8uTQ0CrSBALGP-22" style="edgeStyle=orthogonalEdgeStyle;rounded=0;orthogonalLoop=1;jettySize=auto;html=1;exitX=0.5;exitY=1;exitDx=0;exitDy=0;entryX=0.75;entryY=1;entryDx=0;entryDy=0;" edge="1" parent="1" source="ZRSunYi8uTQ0CrSBALGP-8" target="m3ombVxUTrLoru0Fd6zf-2">
          <mxGeometry relative="1" as="geometry">
            <Array as="points">
              <mxPoint x="-141" y="1329" />
              <mxPoint x="-507" y="1329" />
            </Array>
          </mxGeometry>
        </mxCell>
        <mxCell id="ZRSunYi8uTQ0CrSBALGP-8" value="&lt;b&gt;&lt;font face=&quot;Verdana&quot;&gt;Travelers&lt;/font&gt;&lt;/b&gt;" style="rounded=0;whiteSpace=wrap;html=1;" vertex="1" parent="1">
          <mxGeometry x="-209" y="1191" width="136" height="68" as="geometry" />
        </mxCell>
        <mxCell id="ZRSunYi8uTQ0CrSBALGP-10" value="Service provider details" style="text;html=1;strokeColor=none;fillColor=none;align=center;verticalAlign=middle;whiteSpace=wrap;rounded=0;" vertex="1" parent="1">
          <mxGeometry x="-847" y="1082" width="135" height="30" as="geometry" />
        </mxCell>
        <mxCell id="ZRSunYi8uTQ0CrSBALGP-14" value="Service Details" style="text;html=1;strokeColor=none;fillColor=none;align=center;verticalAlign=middle;whiteSpace=wrap;rounded=0;" vertex="1" parent="1">
          <mxGeometry x="-844" y="1191" width="135" height="30" as="geometry" />
        </mxCell>
        <mxCell id="ZRSunYi8uTQ0CrSBALGP-16" value="Reservation Details" style="text;html=1;strokeColor=none;fillColor=none;align=center;verticalAlign=middle;whiteSpace=wrap;rounded=0;" vertex="1" parent="1">
          <mxGeometry x="-873" y="1300" width="135" height="30" as="geometry" />
        </mxCell>
        <mxCell id="ZRSunYi8uTQ0CrSBALGP-18" value="Traveler Details" style="text;html=1;strokeColor=none;fillColor=none;align=center;verticalAlign=middle;whiteSpace=wrap;rounded=0;" vertex="1" parent="1">
          <mxGeometry x="-418" y="1082" width="135" height="30" as="geometry" />
        </mxCell>
        <mxCell id="ZRSunYi8uTQ0CrSBALGP-21" value="Service details" style="text;html=1;strokeColor=none;fillColor=none;align=center;verticalAlign=middle;whiteSpace=wrap;rounded=0;" vertex="1" parent="1">
          <mxGeometry x="-402" y="1193" width="135" height="30" as="geometry" />
        </mxCell>
        <mxCell id="ZRSunYi8uTQ0CrSBALGP-23" value="Service Reservation&amp;nbsp;" style="text;html=1;strokeColor=none;fillColor=none;align=center;verticalAlign=middle;whiteSpace=wrap;rounded=0;" vertex="1" parent="1">
          <mxGeometry x="-393" y="1300" width="135" height="30" as="geometry" />
        </mxCell>
      </root>
    </mxGraphModel>
  </diagram>
</mxfile>
